<svg version="1.1" x="0px" y="0px" viewBox="0 0 88.814728 94.029869" xml:space="preserve" id="svg4" width="88.814728" height="94.029869" xmlns="http://www.w3.org/2000/svg" xmlns:svg="http://www.w3.org/2000/svg">
                <defs id="defs4"></defs>
                <path d="M 31.05504,84.644626 C 15.731181,79.485172 5.162862,65.273731 4.75459,48.94701 4.740979,48.402751 4.3067123,47.965618 3.7622816,47.965618 H 1.0090653 c -0.56028083,0 -1.02178723,0.46215 -1.00879763024,1.022277 C 0.43430487,67.704166 12.757478,83.966235 30.525811,89.478519 c 0.233196,0.07234 0.379822,0.300629 0.344539,0.542221 l -0.501827,3.436142 c -0.05563,0.380875 0.321934,0.679131 0.679585,0.536842 L 42.652066,89.37714 c 0.357609,-0.142273 0.427128,-0.618302 0.125145,-0.856904 L 32.97823,80.777889 c -0.302021,-0.238632 -0.749103,-0.06081 -0.804729,0.32006 l -0.458458,3.13913 c -0.04521,0.309586 -0.363491,0.507378 -0.660003,0.407547 z" id="path1" fill="white"></path>
                <path d="m 57.944375,4.0092076 0.501831,-3.43622334 c 0.05563,-0.3808744 -0.321933,-0.6791265 -0.67958,-0.5368371 L 46.162664,4.6527318 C 45.805055,4.7950047 45.735536,5.2710303 46.037519,5.509633 l 9.798984,7.74235 c 0.302017,0.238631 0.749104,0.06081 0.80473,-0.320061 l 0.45845,-3.1390696 c 0.04522,-0.309585 0.363499,-0.507377 0.660007,-0.40754 15.323517,5.1594526 25.892167,19.3708336 26.300446,35.6975466 0.01361,0.544262 0.447884,0.981392 0.99231,0.981392 h 2.753219 c 0.56028,0 1.02179,-0.46215 1.008797,-1.022277 C 88.38041,26.326179 76.057229,10.064566 58.288892,4.5514248 58.055711,4.4790729 57.909093,4.2507947 57.944375,4.0092076 Z" id="path2" fill="white"></path>
                <path d="M 25.495088,6.6840209 4.0761644,28.102945 c -2.9510636,2.951063 -2.9510636,7.752325 0,10.70339 L 52.616249,87.346424 c 2.950737,2.950737 7.751999,2.950737 10.703064,-3.29e-4 L 84.738236,65.927173 c 2.951393,-2.951393 2.951393,-7.752659 6.56e-4,-10.703392 L 36.198808,6.6836928 C 33.247743,3.7326292 28.446481,3.7326292 25.495088,6.6840209 Z M 14.961719,22.085611 c -0.273287,-0.273287 -0.273329,-0.718237 -4.2e-5,-0.991524 l 3.524881,-3.524881 c 0.273493,-0.273493 0.718237,-0.273247 0.991526,4e-5 l 0.08234,0.08234 c 0.273289,0.273287 0.273493,0.717991 0,0.991484 l -3.524881,3.524881 c -0.273287,0.273287 -0.718196,0.273287 -0.991482,0 z m 60.40695,49.049898 -6.840683,6.840691 c -0.552933,0.552932 -1.457726,0.552887 -2.010659,-4.6e-5 -0.552978,-0.552971 -0.552978,-1.457726 -4.5e-5,-2.010658 l 6.840683,-6.840683 c 0.55294,-0.552933 1.457687,-0.552933 2.010666,3.8e-5 0.552932,0.552932 0.55297,1.457725 3.8e-5,2.010658 z m 6.718956,-16.283813 c 0.371261,0.371261 0.371261,0.973144 0,1.344406 l -28.49905,28.499046 c -0.371262,0.371261 -0.973145,0.371261 -1.344406,0 L 5.234673,37.685653 c -0.371222,-0.37122 -0.371263,-0.973141 0,-1.344406 L 33.73372,7.8422014 c 0.371262,-0.371263 0.973186,-0.371222 1.344406,0 z" id="path3" fill="white"></path>
            </svg>